<?xml version="1.0" encoding="UTF-8"?>
<svg version="1.1" xmlns="http://www.w3.org/2000/svg" width="256" height="256">
<path d="M0 0 C0.84433594 0.42410156 1.68867188 0.84820313 2.55859375 1.28515625 C15.16779781 8.17511707 21.61146306 18.07850836 27 31 C30.41659833 42.66224347 28.78878219 57.09542369 24 68 C22.5901144 71.12138328 22.5901144 71.12138328 24.51171875 74.51953125 C25.2314688 75.95330031 25.95710553 77.38412408 26.6875 78.8125 C34.30590143 94.396345 37.65016922 110.6260335 37 128 C38.19625 128.2475 39.3925 128.495 40.625 128.75 C48.26687948 130.71083375 53.53300156 135.65102158 58 142 C60.59773047 147.07435463 61.45534894 151.1250713 61.5 156.8125 C61.54640625 158.77123047 61.54640625 158.77123047 61.59375 160.76953125 C60.83082927 170.37322292 53.85621627 178.2476011 48.125 185.5 C46.7506329 187.25887812 45.37822603 189.01928975 44.0078125 190.78125 C43.34168945 191.63460937 42.67556641 192.48796875 41.98925781 193.3671875 C39.3348608 196.88032169 36.87557635 200.51369622 34.44091797 204.18164062 C33.96541504 204.78169922 33.48991211 205.38175781 33 206 C32.34 206 31.68 206 31 206 C29.48779297 204.25585938 29.48779297 204.25585938 27.7421875 201.84375 C27.11699219 200.98652344 26.49179688 200.12929687 25.84765625 199.24609375 C25.19667969 198.33988281 24.54570312 197.43367187 23.875 196.5 C23.21628906 195.59378906 22.55757812 194.68757812 21.87890625 193.75390625 C20.24675674 191.50674387 18.62079984 189.25535528 17 187 C16.28714844 187.72960937 15.57429687 188.45921875 14.83984375 189.2109375 C12 192 12 192 9.25390625 194.2890625 C4.0041313 198.52366686 4.0041313 198.52366686 1.80078125 204.53125 C2.3511341 207.16511278 2.3511341 207.16511278 3.19140625 209.859375 C4.19469362 213.7562013 4.3061165 217.36889663 4.3125 221.375 C4.33739502 222.39231201 4.33739502 222.39231201 4.36279297 223.43017578 C4.36387785 227.80334356 3.68727927 230.53863326 1 234 C-2.65893725 236.4392915 -4.58953605 236.19525124 -8.9375 236.25 C-14.41868559 236.34816108 -14.41868559 236.34816108 -18.4375 239.6875 C-18.953125 240.780625 -19.46875 241.87375 -20 243 C-21.5234375 244.625 -21.5234375 244.625 -23.3125 246.1875 C-23.84488281 246.65542969 -24.37726563 247.12335938 -24.92578125 247.60546875 C-32.78575683 252.88985911 -40.9157142 252.94253953 -50 252 C-56.82785154 250.01001736 -62.78626036 245.76006612 -67 240 C-67.36431933 238.67479801 -67.70187594 237.34164486 -68 236 C-74.58432592 235.94008488 -81.16653965 235.94250931 -87.75097656 235.98779297 C-89.98957723 235.9958921 -92.2282764 235.98984418 -94.46679688 235.96923828 C-97.69010691 235.94204339 -100.909636 235.96611971 -104.1328125 236 C-105.12991241 235.9805835 -106.12701233 235.96116699 -107.15432739 235.94116211 C-112.50431278 235.99730432 -112.50431278 235.99730432 -116.88372803 238.74658203 C-118.47811318 240.83430095 -118.47811318 240.83430095 -119.72775269 243.00439453 C-122.98729216 248.11720139 -128.34336494 250.42490791 -134 252 C-144.05768453 253.18594013 -152.78769135 252.28000073 -161 246 C-162.01125849 244.42865989 -162.97106747 242.82293861 -163.875 241.1875 C-165.33090389 238.67123644 -165.33090389 238.67123644 -168 237 C-172.66680307 236.17354668 -177.36738338 236.19867956 -182.09326172 236.33666992 C-189.26087943 236.47226687 -189.26087943 236.47226687 -193.1484375 233.98828125 C-195.46925345 230.24266057 -195.67234246 227.21080962 -195.5 222.9375 C-195.50386719 221.87692383 -195.50386719 221.87692383 -195.5078125 220.79492188 C-195.44997468 217.71505789 -195.16722883 215.33392166 -193.78125 212.56640625 C-191.57720189 210.62819728 -189.85083747 210.47989874 -187 210 C-187.00888245 208.9314679 -187.01776489 207.86293579 -187.0269165 206.76202393 C-187.10796484 196.69748659 -187.16794738 186.63301536 -187.20724869 176.56822586 C-187.22813313 171.39365296 -187.25646658 166.21934328 -187.30175781 161.04492188 C-187.34518476 156.05230875 -187.36913065 151.05994897 -187.37950897 146.06716156 C-187.386906 144.16132366 -187.40135054 142.25549979 -187.42292023 140.34976959 C-187.45191246 137.682418 -187.45595778 135.01611634 -187.45410156 132.34863281 C-187.47567322 131.1639592 -187.47567322 131.1639592 -187.49768066 129.95535278 C-187.47106321 126.42590754 -187.30387752 124.40595926 -185.15911865 121.54071045 C-181.69466525 119.06853526 -178.94647135 118.88381206 -174.8125 118.9375 C-173.46091797 118.95103516 -173.46091797 118.95103516 -172.08203125 118.96484375 C-171.39496094 118.97644531 -170.70789063 118.98804687 -170 119 C-170.04640625 118.40316406 -170.0928125 117.80632812 -170.140625 117.19140625 C-170.86610183 99.75405236 -163.69025573 84.21688899 -156 69 C-156.61875 68.13375 -157.2375 67.2675 -157.875 66.375 C-162.71728821 58.68430696 -162.98800438 50.88313845 -162 42 C-159.42355995 33.4771755 -154.81767346 27.30538538 -147 23 C-138.16545522 19.19224272 -130.4720213 19.09601622 -121.37109375 21.921875 C-118.81717872 23.08312796 -117.42677049 24.36209154 -115.5 26.375 C-113.89469316 28.00003729 -113.89469316 28.00003729 -112 29 C-108.41289281 28.76648127 -105.31429237 27.32298914 -102 26 C-89.45941685 21.90166989 -77.20304213 19.82434977 -64 20 C-63.76539063 19.278125 -63.53078125 18.55625 -63.2890625 17.8125 C-59.77077912 10.13624536 -51.54971635 3.61671293 -44 0 C-43.19949219 -0.39058594 -42.39898437 -0.78117188 -41.57421875 -1.18359375 C-29.11083686 -6.27824349 -11.97018047 -6.41473778 0 0 Z M-106 38 C-105.84402344 38.68964844 -105.68804687 39.37929688 -105.52734375 40.08984375 C-103.54707522 51.01799232 -104.67351699 59.84956899 -111 69 C-115.57630838 75.33352011 -120.36445559 81.49795959 -125.18408203 87.64697266 C-127.54506783 90.70628714 -129.78438795 93.83422293 -132 97 C-135.51722507 95.82759164 -136.0120004 94.94528739 -138.06640625 91.96484375 C-138.63423828 91.15595703 -139.20207031 90.34707031 -139.78710938 89.51367188 C-140.37298828 88.66353516 -140.95886719 87.81339844 -141.5625 86.9375 C-142.72442785 85.25492689 -143.89209848 83.5763001 -145.06640625 81.90234375 C-145.58146729 81.15460693 -146.09652832 80.40687012 -146.62719727 79.63647461 C-147.08022217 79.09643799 -147.53324707 78.55640137 -148 78 C-148.66 78 -149.32 78 -150 78 C-153.90567234 86.15144535 -157.35971192 94.17728601 -159.4375 103 C-159.60088867 103.68054443 -159.76427734 104.36108887 -159.93261719 105.06225586 C-160.68478509 108.49349843 -161.07594193 111.74730997 -161.03930664 115.24609375 C-161.02633545 116.48488281 -161.01336426 117.72367187 -161 119 C-159.87104813 119.00808685 -158.74209625 119.01617371 -157.57893372 119.02450562 C-146.94061795 119.10198382 -136.30242982 119.18972749 -125.66428089 119.28752708 C-120.19507701 119.33747698 -114.72589232 119.38380728 -109.2565918 119.421875 C-103.97861121 119.4587441 -98.70079169 119.50510875 -93.42294884 119.55806351 C-91.40915438 119.57659876 -89.39532541 119.59170993 -87.38147926 119.60334396 C-84.56119918 119.6202211 -81.74128729 119.64926002 -78.92114258 119.68115234 C-78.08820175 119.68331253 -77.25526093 119.68547272 -76.39707947 119.68769836 C-72.19659733 119.74839518 -68.77446034 119.92852581 -65 122 C-62.42238063 126.19851499 -62.56801032 131.01538944 -62.375 135.8125 C-62.33632812 136.60076172 -62.29765625 137.38902344 -62.2578125 138.20117188 C-62.16411156 140.1337538 -62.08099221 142.06684376 -62 144 C-60.78940918 144.01458252 -59.57881836 144.02916504 -58.33154297 144.04418945 C-53.82490019 144.10231685 -49.31874951 144.1795489 -44.8125 144.26245117 C-42.86499032 144.29563265 -40.91738603 144.32368557 -38.96972656 144.34643555 C-36.16430485 144.38010634 -33.35974472 144.43242827 -30.5546875 144.48828125 C-29.68883026 144.49467117 -28.82297302 144.5010611 -27.93087769 144.50764465 C-22.93184518 144.6282589 -19.24633059 145.08119802 -15 148 C-11.69168339 152.08503139 -10.75022579 157.0104383 -9.51953125 162.01953125 C-9.30181564 162.87810226 -9.08410004 163.73667328 -8.85978699 164.6212616 C-8.16973274 167.34981959 -7.49097513 170.08104235 -6.8125 172.8125 C-6.34514506 174.66880727 -5.87705414 176.52492941 -5.40820312 178.38085938 C-4.26360058 182.9184731 -3.12911737 187.45850939 -2 192 C-1.04988037 191.21826416 -0.09976074 190.43652832 0.87915039 189.63110352 C1.41359268 189.19137711 1.94803497 188.7516507 2.49867249 188.29859924 C4.38436549 186.66753641 5.92321304 184.91590608 7.4375 182.9375 C7.95183594 182.28652344 8.46617187 181.63554687 8.99609375 180.96484375 C10.19137547 179.06823464 10.19137547 179.06823464 9.78515625 177.0078125 C8.9643931 174.90894555 8.04619532 172.93373299 7 170.9375 C3.17770238 163.61611375 2.62793033 155.3706727 4.68359375 147.32421875 C7.84016794 139.740582 12.46029679 134.21937507 19.97265625 130.82421875 C22.31142334 129.87339051 24.65339491 128.93132161 27 128 C27.7906992 110.4508705 24.53419717 95.84692806 17 80 C16.34 80 15.68 80 15 80 C13.43735098 81.84092899 11.99407788 83.68539833 10.5625 85.625 C9.65701429 86.82739886 8.7507374 88.02920224 7.84375 89.23046875 C7.37453125 89.8548584 6.9053125 90.47924805 6.421875 91.12255859 C4.17368268 94.09106803 1.86967839 97.01474309 -0.4375 99.9375 C-3.29180286 103.55606697 -6.14151798 107.17749072 -8.96484375 110.8203125 C-9.45218994 111.44687744 -9.93953613 112.07344238 -10.44165039 112.71899414 C-11.36672722 113.90878381 -12.28928074 115.10054171 -13.20874023 116.29467773 C-15.9392236 119.79802761 -18.80783908 122.92797416 -22 126 C-28.23309946 118.69756519 -34.1722717 111.22778391 -39.96069336 103.56933594 C-43.24674985 99.23922432 -46.61544618 95.00042634 -50.0871582 90.81787109 C-62.2069175 76.20155882 -72.44135761 62.01140683 -71 42 C-70.43147497 37.98077525 -69.74480841 33.99004506 -69 30 C-81.72041702 29.0109395 -94.68548975 32.23988569 -106 38 Z " fill="#020101" transform="translate(195,4)"/>
<path d="M0 0 C11.22 0 22.44 0 34 0 C34 10.23 34 20.46 34 31 C39.61938184 28.01316352 39.61938184 28.01316352 45.21704102 24.98608398 C50.23001965 22.40062115 53.37572014 21.31271604 59 23 C61.8992051 24.20733736 64.6631673 25.59349706 67.4375 27.0625 C69.933125 28.361875 72.42875 29.66125 75 31 C75 20.77 75 10.54 75 0 C85.89 0 96.78 0 108 0 C108 27.39 108 54.78 108 83 C100.905 83.20625 93.81 83.4125 86.5 83.625 C83.16358398 83.76156006 83.16358398 83.76156006 79.75976562 83.90087891 C65.71672473 84.23485421 65.71672473 84.23485421 60.99316406 80.8371582 C58.921875 78.15234375 58.921875 78.15234375 57.47167969 75.46459961 C54.64579094 70.73212667 49.10439004 68.93192216 43.99609375 67.3984375 C36.29980016 65.86219103 29.67561345 66.89377734 23 71 C18.11447571 74.60435533 15.16432691 77.72612182 12 83 C8.04 83 4.08 83 0 83 C0 55.61 0 28.22 0 0 Z " fill="#D09D6A" transform="translate(16,132)"/>
<path d="M0 0 C9.18318123 6.60041151 14.96718139 16.29238653 17.1875 27.3125 C19.04120521 47.62381279 8.65772834 60.45144264 -3.4921875 75.23828125 C-8.06994066 80.82556192 -12.43259382 86.56961602 -16.8125 92.3125 C-19.13947183 95.31747441 -21.47432877 98.31623422 -23.8125 101.3125 C-27.88709532 97.39606827 -31.46093937 93.21464296 -35 88.8125 C-35.85319824 87.75627441 -35.85319824 87.75627441 -36.72363281 86.67871094 C-41.04818823 81.30636643 -45.30415535 75.88694585 -49.46484375 70.38671875 C-51.02661167 68.34160835 -52.62329324 66.32268361 -54.25390625 64.33203125 C-62.59852424 53.92531656 -66.81053293 43.45893803 -66.29296875 29.98828125 C-64.70766108 17.86003318 -58.78708008 8.24742307 -49.5 0.5 C-33.89641814 -11.01565716 -16.17021316 -9.73541135 0 0 Z " fill="#F67D6A" transform="translate(197.8125,15.6875)"/>
<path d="M0 0 C6.13936098 3.64972627 11.59250628 9.70242253 13.6875 16.5625 C14.69033712 25.66966039 13.85804441 32.33612157 8.14453125 39.49609375 C3.47005254 44.64122935 -1.07098912 47.12222621 -7.984375 47.83984375 C-15.72509948 48.10713396 -21.21384673 46.70772149 -27.5625 42.3125 C-33.08486085 36.79013915 -35.42936182 31.07889391 -35.5625 23.3125 C-35.48347148 15.90357659 -33.6431687 9.8931687 -28.3125 4.5625 C-20.00587541 -1.37320543 -9.91730148 -4.34622774 0 0 Z " fill="#FCE7A5" transform="translate(184.3125,26.4375)"/>
<path d="M0 0 C6.703125 -0.0825 13.40625 -0.165 20.3125 -0.25 C22.42567627 -0.28641602 24.53885254 -0.32283203 26.71606445 -0.36035156 C28.39012637 -0.37203345 30.06419964 -0.38222646 31.73828125 -0.390625 C32.60819702 -0.41108887 33.47811279 -0.43155273 34.37438965 -0.45263672 C40.46555661 -0.45617552 40.46555661 -0.45617552 43.07885742 1.77441406 C44 4 44 4 44 8 C43.35450195 8.0093457 42.70900391 8.01869141 42.04394531 8.02832031 C39.11186056 8.08209101 36.18135992 8.1657234 33.25 8.25 C31.72632813 8.27126953 31.72632813 8.27126953 30.171875 8.29296875 C24.48257662 8.43673359 24.48257662 8.43673359 19.328125 10.578125 C17.46264063 13.97989062 17.469582 16.6369134 17.5 20.5 C17.4896875 21.8096875 17.479375 23.119375 17.46875 24.46875 C18.09054242 28.60184081 18.72842038 29.5098529 22 32 C25.1830881 32.64071929 25.1830881 32.64071929 28.734375 32.609375 C30.02988281 32.64160156 31.32539063 32.67382812 32.66015625 32.70703125 C34.02343302 32.72177469 35.38671445 32.73609222 36.75 32.75 C38.12894376 32.77816814 39.50785275 32.80809678 40.88671875 32.83984375 C44.25787216 32.91056725 47.6283328 32.96325504 51 33 C52.00395221 36.7906316 53.00249094 40.58266824 54 44.375 C54.42925781 45.99535156 54.42925781 45.99535156 54.8671875 47.6484375 C55.13789063 48.6796875 55.40859375 49.7109375 55.6875 50.7734375 C55.93886719 51.72653809 56.19023437 52.67963867 56.44921875 53.66162109 C57 56 57 56 57 58 C53.52081633 58.56702993 50.46069543 58.75210415 47 58 C44.83380981 55.96020722 43.36571052 53.79859856 41.71484375 51.328125 C38.02948765 46.32477138 31.99840221 43.29377302 26 42 C15.1548494 40.89853939 8.89973286 44.06684476 0 50 C0 33.5 0 17 0 0 Z " fill="#F7D36E" transform="translate(132,157)"/>
<path d="M0 0 C5.16635469 2.97722135 8.96586492 7.62163244 11.07421875 13.1953125 C12.55312958 20.54878577 9.68107108 25.94354692 6.07421875 32.1953125 C3.64631117 35.84431576 1.04633914 39.33778338 -1.61328125 42.8203125 C-2.62745117 44.18349609 -2.62745117 44.18349609 -3.66210938 45.57421875 C-7.38186764 50.49688392 -7.38186764 50.49688392 -8.92578125 52.1953125 C-9.58578125 52.1953125 -10.24578125 52.1953125 -10.92578125 52.1953125 C-12.37451172 50.54638672 -12.37451172 50.54638672 -14.04296875 48.25 C-14.95369141 47.00476563 -14.95369141 47.00476563 -15.8828125 45.734375 C-16.51574219 44.85523438 -17.14867187 43.97609375 -17.80078125 43.0703125 C-18.42597656 42.214375 -19.05117187 41.3584375 -19.6953125 40.4765625 C-26.9572335 30.49717846 -31.23574121 24.06643069 -29.92578125 11.1953125 C-27.92337843 5.30974533 -24.0649092 2.13119333 -18.79296875 -0.89453125 C-12.10579419 -4.1541791 -6.44524872 -3.12961143 0 0 Z " fill="#F67D6A" transform="translate(236.92578125,142.8046875)"/>
<path d="M0 0 C4.87051556 3.53627633 8.24967315 8.32117192 9.265625 14.26953125 C9.75548576 23.85991638 7.04085508 29.37214071 1.11083984 36.60742188 C-0.32356873 38.36855971 -1.70028211 40.16496767 -3.0703125 41.9765625 C-5.43375825 45.09852689 -7.83025707 48.19185876 -10.24609375 51.2734375 C-13.79603525 49.8157132 -15.52190431 47.99696875 -17.8125 44.94921875 C-18.46283203 44.08490234 -19.11316406 43.22058594 -19.78320312 42.33007812 C-20.45158203 41.42451172 -21.11996094 40.51894531 -21.80859375 39.5859375 C-22.48083984 38.69970703 -23.15308594 37.81347656 -23.84570312 36.90039062 C-28.89015542 30.13270935 -32.94554386 24.25371528 -32.58984375 15.5390625 C-31.59159191 8.95967537 -28.12103461 4.47012154 -22.95703125 0.4609375 C-15.9710886 -4.38775329 -7.30055805 -4.1591058 0 0 Z " fill="#F67D6A" transform="translate(73.24609375,35.7265625)"/>
<path d="M0 0 C7.38454956 4.31525118 13.66703353 10.72269661 16.8046875 18.79296875 C19.11498062 28.9040664 18.62774674 38.93149327 13.33203125 47.97265625 C8.01197271 55.24523112 1.35387926 60.61887509 -7.5625 62.5625 C-17.69171712 63.61261322 -26.31663494 62.92136343 -34.7734375 57.01953125 C-41.24356325 51.76405736 -45.33226043 45.59331879 -47.5625 37.5625 C-48.63510336 26.33758107 -47.54598815 17.23592129 -40.4375 8.3125 C-30.09352014 -2.72555643 -13.88368351 -6.4269737 0 0 Z M-29.5625 9.5625 C-30.47 10.160625 -31.3775 10.75875 -32.3125 11.375 C-37.65020194 16.56443244 -39.68689175 22.485352 -39.8125 29.8125 C-39.73347148 37.22142341 -37.8931687 43.2318313 -32.5625 48.5625 C-25.05862389 54.02408405 -18.83990256 55.41965132 -9.5625 54.5625 C-1.93254347 52.75283082 3.01033643 47.85820263 7.4375 41.5625 C10.54691378 35.3639292 10.51058314 27.88364014 8.85546875 21.21875 C6.06930731 14.80676202 0.23008294 9.47118553 -5.953125 6.359375 C-14.10586078 3.86961737 -22.56120151 4.74493985 -29.5625 9.5625 Z " fill="#060403" transform="translate(188.5625,19.4375)"/>
<path d="M0 0 C4.71099898 3.58933256 9.67499193 7.91542452 10.625 14 C11.46625068 21.35828127 11.22118363 27.09243884 6.58984375 33.0859375 C1.96577629 37.59049626 -3.53062231 40.20495236 -10 40.5625 C-16.54973804 40.12354048 -21.39432366 37.39276577 -25.75 32.5625 C-30.32486113 26.66987996 -31.25417691 21.38283172 -30.375 14 C-28.4886639 7.23067993 -24.18103753 3.63191525 -18.375 0 C-13.22118952 -2.57690524 -5.36003823 -1.58815948 0 0 Z " fill="#9098A3" transform="translate(162.375,208)"/>
<path d="M0 0 C5.27829751 3.16101433 9.10073486 7.36435687 11.51171875 13.0546875 C12.452629 20.10057359 11.83034388 26.28389311 7.51171875 32.0546875 C2.75482146 37.11593604 -1.77557527 40.04540273 -8.80078125 40.4296875 C-14.61206844 40.26558138 -19.00549454 38.37782717 -23.25 34.40625 C-28.28357122 28.82422671 -29.97991225 24.14068937 -29.80078125 16.6171875 C-29.12248387 11.05514901 -26.69100897 6.83840732 -22.48828125 3.1796875 C-15.73326702 -1.60511425 -8.0123316 -3.04393131 0 0 Z " fill="#919AA4" transform="translate(62.48828125,207.9453125)"/>
<path d="M0 0 C3.76115969 2.06495042 7.09650288 4.08725592 9 8 C9.57729504 12.26556888 9.44900325 15.85254726 7.875 19.875 C4.58653613 23.60192572 1.38235744 24.82720532 -3.5 25.4375 C-7.70552222 24.91180972 -9.76772984 23.70608664 -13 21 C-15.55440995 16.8184659 -15.81979675 12.77800732 -15 8 C-13.31914939 4.83250064 -10.98835778 2.7014152 -8.0625 0.625 C-5.15227888 -0.25688519 -3.03383286 -0.36405994 0 0 Z " fill="#070403" transform="translate(65,41)"/>
<path d="M0 0 C3.56024087 1.27631276 5.45730568 2.34876682 7.875 5.25 C9.78988929 9.93084048 9.53379011 13.53910075 7.8125 18.25 C5.71251242 21.43618806 4.5544915 22.60911202 1 24 C-2.83247083 24.63756446 -6.34088238 24.88580008 -9.84375 23.015625 C-13.86806518 19.8198453 -15.72197083 17.13155699 -16.375 12.125 C-15.80456791 7.37139923 -13.45137487 4.55504451 -10.25 1.125 C-6.86630053 -0.56684973 -3.66151204 -0.51501036 0 0 Z " fill="#040404" transform="translate(57,215)"/>
<path d="M0 0 C3.77327682 1.64055514 5.80680609 3.55705313 8 7 C8.80503292 11.06541625 8.95254041 15.23956421 6.9453125 18.94921875 C4.54832816 21.87807831 2.60108153 23.82713987 -1.20703125 24.23828125 C-8.24770268 24.43884011 -8.24770268 24.43884011 -12 22.25 C-15.72489143 18.05949714 -16.44181007 14.6871557 -16.32421875 9.1875 C-15.83827138 5.90881896 -14.37037765 4.2349275 -12 2 C-7.9556813 -0.69621247 -4.74665346 -0.54319098 0 0 Z " fill="#070403" transform="translate(231,149)"/>
<path d="M0 0 C3.56024087 1.27631276 5.45730568 2.34876682 7.875 5.25 C9.78988929 9.93084048 9.53379011 13.53910075 7.8125 18.25 C5.71251242 21.43618806 4.5544915 22.60911202 1 24 C-2.86859581 24.64357416 -6.37846198 24.91021885 -9.87890625 22.9453125 C-12.82057955 20.54944364 -14.79361254 18.63930608 -15.2734375 14.828125 C-15.58137554 7.01123631 -15.58137554 7.01123631 -12.625 3.4375 C-8.58615641 -0.31285477 -5.37338329 -0.55034652 0 0 Z " fill="#030303" transform="translate(156,215)"/>
<path d="M0 0 C8.25 0 16.5 0 25 0 C25 5.94 25 11.88 25 18 C19 16 19 16 16 14.25 C13.06776839 12.69475878 13.06776839 12.69475878 10.0625 13.625 C9.051875 14.07875 8.04125 14.5325 7 15 C3.535 16.485 3.535 16.485 0 18 C0 12.06 0 6.12 0 0 Z " fill="#AB7443" transform="translate(58,132)"/>
<path d="M0 0 C13.53 0 27.06 0 41 0 C41 2.64 41 5.28 41 8 C27.47 8 13.94 8 0 8 C0 5.36 0 2.72 0 0 Z " fill="#CBD0D8" transform="translate(83,223)"/>
<path d="M0 0 C7.26 0 14.52 0 22 0 C22.33 2.97 22.66 5.94 23 9 C15.41 9 7.82 9 0 9 C0 6.03 0 3.06 0 0 Z " fill="#5FC3DE" transform="translate(157,173)"/>
<path d="M0 0 C5.61 0 11.22 0 17 0 C17 2.64 17 5.28 17 8 C11.39 8 5.78 8 0 8 C0 5.36 0 2.72 0 0 Z " fill="#C7CCD4" transform="translate(8,223)"/>
<path d="M0 0 C2.97 0 5.94 0 9 0 C9 2.97 9 5.94 9 9 C6.03 9 3.06 9 0 9 C0 6.03 0 3.06 0 0 Z " fill="#000000" transform="translate(132,107)"/>
<path d="M0 0 C2.97 0 5.94 0 9 0 C9 2.97 9 5.94 9 9 C6.03 9 3.06 9 0 9 C0 6.03 0 3.06 0 0 Z " fill="#000000" transform="translate(115,107)"/>
<path d="M0 0 C2.97 0 5.94 0 9 0 C9 2.97 9 5.94 9 9 C6.03 9 3.06 9 0 9 C0 6.03 0 3.06 0 0 Z " fill="#000000" transform="translate(99,107)"/>
<path d="M0 0 C2.64 0 5.28 0 8 0 C8 2.64 8 5.28 8 8 C5.36 8 2.72 8 0 8 C0 5.36 0 2.72 0 0 Z " fill="#CACFD7" transform="translate(182,223)"/>
<path d="M0 0 C0.625 2.375 0.625 2.375 1 5 C-1 7 -1 7 -3.5625 7.1875 C-6 7 -6 7 -7 6 C-7.04080783 4.00041636 -7.04254356 1.99954746 -7 0 C-4.3333581 -1.33332095 -2.83319697 -0.67102033 0 0 Z " fill="#BDC1C9" transform="translate(57,224)"/>
<path d="M0 0 C1.4540625 0.0309375 1.4540625 0.0309375 2.9375 0.0625 C3.5625 2.9375 3.5625 2.9375 3.9375 6.0625 C3.2775 6.7225 2.6175 7.3825 1.9375 8.0625 C-2.61805556 7.50694444 -2.61805556 7.50694444 -4.0625 6.0625 C-4.1875 3.5625 -4.1875 3.5625 -4.0625 1.0625 C-3.0625 0.0625 -3.0625 0.0625 0 0 Z " fill="#ECD89A" transform="translate(62.0625,49.9375)"/>
<path d="M0 0 C2.625 0.375 2.625 0.375 5 1 C5.625 3.375 5.625 3.375 6 6 C4 8 4 8 1.4375 8.1875 C-1 8 -1 8 -2 7 C-2.1875 4.5625 -2.1875 4.5625 -2 2 C-1.34 1.34 -0.68 0.68 0 0 Z " fill="#C0C4CC" transform="translate(151,223)"/>
<path d="M0 0 C2.625 0.375 2.625 0.375 5 1 C5.625 3.375 5.625 3.375 6 6 C5.34 6.66 4.68 7.32 4 8 C1.375 7.625 1.375 7.625 -1 7 C-1.625 4.625 -1.625 4.625 -2 2 C-1.34 1.34 -0.68 0.68 0 0 Z " fill="#F7E2A1" transform="translate(225,157)"/>
</svg>
